<?xml version="1.0" encoding="utf-8"?>
<!-- Generator: Adobe Illustrator 19.0.0, SVG Export Plug-In . SVG Version: 6.00 Build 0)  -->
<svg version="1.1" xmlns="http://www.w3.org/2000/svg" xmlns:xlink="http://www.w3.org/1999/xlink" x="0px" y="0px"
	 viewBox="0 0 1920 1080" style="enable-background:new 0 0 1920 1080;" xml:space="preserve">
<style type="text/css">
	.st0{display:none;}
	.st1{display:inline;fill:none;stroke:#492811;stroke-width:8;stroke-miterlimit:10;}
	.st2{fill:#195B09;}
	.st3{fill:#E4B69D;}
	.st4{fill:#CEA28B;}
	.st5{fill:#B08874;}
	.st6{fill:#DBA993;}
	.st7{display:none;opacity:0.63;fill:#BF7582;}
	.st8{fill:#1B263C;}
	.st9{fill:#101524;}
	.st10{fill:#DB9C94;}
	.st11{fill:#CE7872;}
	.st12{fill:#492811;stroke:#492811;stroke-miterlimit:10;}
	.st13{fill:none;stroke:#492811;stroke-miterlimit:10;}
	.st14{fill:#191312;}
	.st15{fill:#2A2B2D;}
	.st16{fill:#181A1C;}
	.st17{fill:#E0DFDE;}
	.st18{fill:none;stroke:#492811;stroke-width:8;stroke-miterlimit:10;}
	.st19{fill:#492811;}
	.st20{fill:#492811;stroke:#492811;stroke-width:0.5;stroke-miterlimit:10;}
	.st21{fill:#F4E0D4;}
	.st22{fill:#0D4C00;}
	.st23{fill:#0D3A02;}
	.st24{fill:#5B3115;}
	.st25{fill:url(#SVGID_1_);}
	.st26{fill:url(#SVGID_2_);}
	.st27{fill:#492811;stroke:#593014;stroke-miterlimit:10;}
	.st28{fill:#593014;stroke:#593014;stroke-width:0.5;stroke-miterlimit:10;}
	.st29{fill:#7A4018;}
	.st30{fill:#281508;}
	.st31{fill:#211107;}
	.st32{fill:#196D05;}
</style>

<g id="Layer_3">
	<path class="st2" d="M996.3,545l2.6-0.8l-0.8,1.9c0,0,17.9-4.6,19.5-4.8s-2.4,3.6-2.4,3.6l14.5,2.6l-2.3,2.5c0,0,2,1.1,33.9-1.3
		c0.9-0.6,1.8-4.4,1.8-4.4l1.3-15.3l-18.4-60.4c0,0-16.9-40-20.3-42.1s-5.5-3.3-5.5-3.3l3.3,1.3l1.2,0.9l2.8,2.9l2.9,5l2.4,3.3
		l2.2,5l3.9,7.6l1.2,3.3l3,7.8l1.5,4.2l2.2,5.8l6.8,21.8l5.7,18.1l5.8,18.8l-1.5,13.7l-1.3,5.9l-0.9,1l-0.1,1.9l0.8,4.6l3,35.5
		l1.8,32.9l-0.4,9.5l0.1,5.6l9.6,20.9l12.9,27.5L1107,729l11.8,27.3l67.4-8.8c0,0,7-6.3,12-4.8c2.2-1.8,21-46.7,21-46.7l16.8-40.4
		l17.3-35.7l-0.9-38.1l1.9-13.3l2.5-4.8l1.4-4.2l3-20.3c0,0,0.3-23.2-1.8-25.5c1.2-3.9,4.2-24.8,4.1-27.9c-0.1-3.1,0-15.8-1.5-22.5
		c-0.5-7.1-1.7-34.6-1.7-34.6s-2.4-17.9-3.8-20.5c2.1,3.6,3,7.8,3,7.8l2.5,22.8l0.8,23.8l1.3,9.5l0.2,19.6l-2.3,19.5l0.2,23.1
		l-0.3,10.2l-1.9,14.9l14.3-1.8l35.7-7.5l9.6-5.1l-5.5-40.5l-3.8-20.3c0,0-2.7-31.2-4.8-35.3c-0.9-4.1-9-38.5-9-38.5
		s-37.9-30-44.6-32.4c-6.7-2.4-32.1-15.1-39.3-16.3c-7.3-1.2-8.8-3.1-8.8-3.1l3,4.8c0,0,2.6,6,2.8,6.6c0.2,0.6-0.3,5.7-0.3,5.7
		l-1.4,7.8c0,0-4.7,6-4.8,6.3s-6.5,6.4-6.5,6.4l-17.3,12.6l-11.1,4.1l-9.2,3.3l-8.8-0.5l-5.2-0.5l-5.2-1.6l-10.6-2.8
		c0,0-29.9-15.8-31.7-33.8c2.3-9.6,3.4-11.8,3.4-11.8l-27.8,12.7c0,0-53.3,29-61.3,38.8c-2.8,2.4-6.8,9.8-6.8,9.8
		s-10.3,22.4-11.6,39.3s-1.2,22.2-1.2,22.2l1.6,9.8l2.5,30.6l-2.2,17.7L996.3,545z"/>
	<polygon class="st3" points="1120,230.7 1151.6,226 1193.3,240.2 1205.2,259 1204.3,294.5 1209.8,292.3 1215,297.5 1215,310 
		1207,327.9 1201.8,331.9 1196.5,331.9 1188.8,348.4 1185.8,356.3 1187.7,359.2 1195.8,357.5 1205,360.7 1208.4,369 1208.4,378.8 
		1199.6,392.8 1176.5,409.8 1161.5,416 1131.9,412.8 1113.2,401.9 1100.8,388.3 1096.7,374 1098.2,368.1 1103.9,362.9 1105,346.8 
		1100.8,324.5 1096.7,327.9 1087.3,322.7 1082,305.1 1082,292.3 1085.8,287.2 1091.8,287.9 1096.7,280.9 1096.7,257 1104.8,235.5 	
		"/>
	<path class="st4" d="M1186.5,249.8c0,0,4.8,3.5-11.3,13c-10.2,7.5-20.6,9.2-20.6,21.1s-1.8,21.7-1.3,24.7c0.5,0.8-7.7,9.8-1,9.9
		c-1.5,9.2-0.9,12.1,1.6,15.9c0.9,1.4,31.8,1.5,2.7,12.4c-9.6,4.9,0.1,3.8-0.4,4c-5.8,2.1-11.5,9.4-11.5,9.4l9.7,8.6
		c0,0,5.6,4.4,17.4-1.1c-0.6,6.3,6.7,9,7.8,11.7c1.1,2.7,2.8,1.7,9.7,11.7c6.9,9.9,17.4-6.3,18.9-10.8c1.5-6.3,2.4-16.4-3.3-19.6
		s-15.8-0.4-19.2-4.4c1.2-3.8,9.9-22.1,9.4-26.2c0.3-2.9,3.1,1.8,3.1,1.8l6.8-1.8l8.6-14.5l2.3-12.8l-2.3-6.6l-5.3-12.3V260
		l-11.1-17.3L1186.5,249.8z"/>
	<path class="st5" d="M1159,289.2c0,0-3.3,4.4,1.3,9c3.2,3.2,8.8,7.5,12.3,10.7c1.1,1,2.6-0.4,1.9-1.6c0,0,0,0,0-0.1
		c-0.5-0.8,0-1.8,0.9-1.9c4-0.4,12.7-1,16.1,1.4c0.6,0.4,1.4,0.2,1.7-0.4c1.8-3.3,5-8.7,1.4-16.2c-0.1-0.1-0.1-0.3-0.1-0.5
		c-0.1-4.3-5.6-8.7-7-9.7c-0.2-0.2-0.5-0.3-0.8-0.2l-21.2,0.6c-0.4,0-0.8,0.2-1,0.6L1159,289.2z"/>
	<path class="st6" d="M1106.9,282.6c-0.3-1.7,0.6-3.3,2.2-4c5.1-2.4,18.6-7.8,26.9-2.2c10.4,7,8.6,8,8.8,10.8s-0.7,7.5-3.2,10.3
		c-2.3,2.6-7.4,4.3-10.5,6.2c-0.9,0.5-1.9-0.3-1.6-1.3c0,0,0,0,0,0c0.2-0.6-0.2-1.3-0.8-1.4c-2.1-0.5-6.2-0.8-11.2,1.9
		c-0.5,0.3-0.9,0.6-1.2,1.1c-0.3,0.4-0.6,0.8-0.9,1.2c-2,2.5-5.9,1.6-6.7-1.4c-1.4-5.3-2.5-12.6,0.6-16.6
		C1109.8,285.4,1107.4,285.7,1106.9,282.6z"/>
	<path class="st5" d="M1133.6,283.3l0,3.6c0,0-8.7-3-15,0.7c-6.3,3.7-7.3,5.6-7.3,5.6s12.5,4.1,20.2,2.3c4.1-1.6,6.9-2.2,6.9-2.2
		h2.7c0,0,2.5-2.2,0-4.2S1133.6,283.3,1133.6,283.3"/>
	<path class="st7" d="M1127.5,335.6c0.7,1.3,7.4-4.7,7.4-4.7s5-1.8,7.7-1.9c1.6,0,3.8,0.7,5.4,1.1c1.8-0.3,6.5-0.7,6.5-0.7l6.9,2.4
		l7.9,5.7c0,0,0.3,3.8-6.9,10.4c-7,2.6-9.4,3.2-13,4.2c-3.6-0.6-12.7-4.2-17.1-7.4C1128.1,339.5,1126.8,334.3,1127.5,335.6z"/>
	<path class="st8" d="M1031.5,754.1c0,0,24-3.1,37.5-0.6c5,7,15.5,21,19.5,32.5c8.5,8,12.5,10,12.5,10s17.5,27.5,27.5,41.5
		c5,3.5,14,6.5,14,6.5l0.3,1.5c0,0-7.6,5.9-2,7.8c-1.1,2.6-1.1,2.6-1.1,2.6l-22.4,37.4c0,0-21.8,44.3-21,46.5s-14.7,33.3-19.1,29.8
		c-1.9,9-7.9,45.3-10.9,41.6c0.5,3.9,0,32.9-3.4,35.9c-1.5,22-4.4,31.5-4.4,31.5h-79.7l11.2-77.6c0,0,1.8-8,7.3-10.2
		c-0.3-4.4-1.2-13.7,5.4-13.6c-2.9-1.3-6.8-2.3-4.9-17.5c1.9-15.2,4.9-11.9,12.8-17.5c0.3-10.5,6.1-30.5,6.1-30.5
		s-9.4-37.8,4.4-86.1c-2.7-3.6-3.2-14.1,0.3-18.6c-0.8-4.3,4.7-18.2,4.7-18.2l0.1-11.5l5.5-8V754.1"/>
	<path class="st9" d="M1048,795.3c0,0,34.5-4.3,46.8,8.5c10.3,4.5,9.3,12.3,9.3,12.3s-1.3,14-6.3,24.3c-1.5,10.8-9.3,21.8-9.3,21.8
		s-8.5,10-9.5,20.5c1.5,5.5,3.8,12.8,3.8,12.8l-1.3,11.5c0,0,7.3-9.3-0.8,1.5s-15.5,11.5-18.8,14.3c5,1.5,4.3,3.5,4.3,3.5
		s-4.5,0.8-6.8,5c5.8-2,13-0.3,13-0.3s-9.3,5.5-11.5,8.8c8.5-0.8,13,4.8,13,4.8s7.8,8-2.8,13.8c-4.3,3.8-18,8-16.8,11.5
		c1,0.8-3,5.3-0.3,11.5c3.5,8.5,3.8,15.3,7,17.8c2.5-3.8,13-22.8,13-22.8l13.8-29.5c0,0,26.3-53.5,27.3-57.8c3-5.8,15.8-36,21-40.3
		s6.3-4.5,6.3-4.5l-13-7c0,0-21-32-27.8-39c-7.8-5.5-13-13.3-14.8-16.8c-9.5-15.3-10.5-16.5-10.5-16.5l-7.5-11.3c0,0-6-0.8-16-0.8
		c7,4.5,17.3,12,17.3,12l9.3,7l4.3,8l0.3,5.8c0,0-32.5,2.3-36.5,7.5c0.5,2.3,1,3.5,1,3.5L1048,795.3z"/>
	<path class="st8" d="M1292.4,715.9c0,0-23.4-7-31.4,1.1s-25.5,37.5-25.5,37.5s7,1.1,6,7s-18.9,34.6-27.3,25.9
		c-3.1,6.9-17.9,37.3-17.9,37.3l8.2,4.5l66.3,74.3c0,0,7.3,17.6,26.4,19c0.8,1.7,0.3,2.7,0.3,2.7l-3.2,5.7l7,6.3l-0.7,12.2l1.8,9.5
		l-4.3,37.2l2.7,84.2h76l-2.3-100.5c0,0,2.2-25.7-1.8-34.5c0.8-8.3,0-25.7,0-25.7s5.7-9.5,4.5-19.2c-0.8-2-6.8-6.3-8-7
		c-1.2-0.7-19.5-57.2-19.5-57.2l-24.3-55.5l-16.3-38.8c0,0,0-12.2-11.3-17.2C1296.2,719.3,1292.4,715.9,1292.4,715.9z"/>
	<path class="st9" d="M1273,715.5c0,0,19.5,3.5,20,5s-32,4-35,6s28,1,26.5,4c-6,9.5-45,23.5-45,23.5l30.5-2l-17.5,8h23l-36,15.5
		l-7.2,7.8l40.7-9.8l-29,20.5c0,0,64.5,3,72.5,8.5c-14,3.5-47,4.5-51.5,9c10.5,7.5,15,19,38.5,26.5c-26.5-3-65.5-13-65.5-13
		l11.5,11.5c0,0,63,10,82.5,25c-21.5-4-26-7-37-7.5c13,14.5,31.5,19.5,41.5,26.5c-27.5-5-31-10.5-36-9c21.5,22.5,23,30.5,23,30.5
		l-0.5,26l9.5,1.5c0,0,2.5,21-3.5,25.5c7.5,3.5,1.5,31,1.5,31s13.5,7.5,21.5-0.5c3.5,9.5,8,20.5,8,20.5l9.5-25.5l3-0.3l3,98.3h-73.3
		c0,0-7.9-78.8,2.3-122c-2.7-5.5-3.8-16.8,0.7-20.8c-8.2-1.7-8.3-3.1-10-5.3s1.1,0.1,4.6-7.2c-1.4-1.5-23-5.1-27.8-21.2
		c-9-7.8-65.8-65.3-65.5-74.2c-8.2-3.2-10.1-3.3-10.1-3.3l17.9-33.2c0,0,12.9,1.7,18.1-8.2c5.2-9.8,16.9-16.3,6.4-28.1
		c-1.8-1-1.8-1-1.8-1l24.8-37.8L1273,715.5z"/>
	<path class="st8" d="M1153.6,753c0,0,7.8,18.4,3,34.4c-0.3,0,0,1.1,0,1.1l4.4-7c0,0,3.1-27.9-1.9-28.6S1153.6,753,1153.6,753z"/>
	<path class="st9" d="M1075.8,974.3c0,0-1.5,23-7.8,37.3c-0.8,8.8-6,55-6,55l-2.3,11.8l-82,1.8c0,0,8-83.3,17-89.8
		c1.5-4.8,1.9-10.4,1.9-10.4l3.7-3.2c0,0-15.3-15.2,8-34c1.8-11.5,6.5-31,6.5-31l-2.7-22.3c0,0,2.5-55.3,7.3-64
		c-2-5-4.3-10.7-0.2-20c1-5,3.3-9.8,3.3-9.8l3.5,4c0,0-9.2,11-3,20.5c4.8,0.3,13.3,4.7,13.3,4.7l-9-0.8l18.2,13.2c0,0-12.5-8-17-5.3
		c-4.5,2.7-5.5,8.5-5.5,8.5s14.5-1.3,16.7,6c2.2,7.3,2.2,7.3,2.2,7.3s-3.8-7.7-6.8-7.2s-11.8,3.5-11.8,3.5s-7.8,27.2-2.7,31.2
		c4.2,3.5,11.8,9,11.8,9s-11-6.3-10.3-4.5c6,5,4.5,8.2,4.5,8.2s-8.5-2.8-9.7-8.2c-2.2,4,9.5,19.3,9.5,19.3l-6.7-5.2
		c0,0-4,20.8,1,22.7c-4.5-3.8-8.3,19.3-8.3,19.3l20.5-3.2c0,0,14.8,0.8,16.2,12.2c-8.5-5.5-11.7-11.3-33.3-5.5
		c-9.3,2.7-15,5.5-16.2,8.5c-1.2,3-5.3,14.7,3,23.4c-1.5,2.2-5,7.6-4,14.4c3.8,0,24.3,0.2,31.2-14c-10.2,15.7-9.5,18.3-9.5,18.3
		s20.3-7.8,21.5-14c2,5.2,12.3-2,13-4.8c3.3,2,18.3-10.8,18.3-10.8L1075.8,974.3"/>
	<path class="st9" d="M1101,926.3c0,0-5.8,10.8-5.8,13.5c1,1.7,6.3-6.7,7-9.7c0.7-3-0.5-4-0.5-4"/>
	<path class="st9" d="M1127.5,876.5c0,0-12.8,18.7-13.2,21.5c1,0.5,2.7-0.2,2.7-0.2l10.7-19.5L1127.5,876.5"/>
	<path class="st9" d="M1027.5,778.2c0,0,4.8-8.3,44.3-0.5C1064.3,778.3,1032.7,774.3,1027.5,778.2z"/>
	<path class="st9" d="M1034.5,759.8c0,0,14.5,0.2,23.8,6.2c4,2.7,6.2,4.2,6.2,4.2s-16.5-5.3-25.3-2.5c-8.8,2.8-10,4.5-10,4.5
		s-3.5,3.3-3.2,4.8s0.2,7.7,0.2,7.7l-0.7,4.8l-0.8,1.8c0,0,4.5-12,39-7.3c3,0.3,9.2,2.7,9.2,2.7s-39.8,0.2-48.8,9.7
		c-1-0.2-1.5-1.5-1.5-1.5l2.7-12.3l-0.8-6.3l5.7-8.2l-0.3-7.5l1.3,7.3c0,0,11-6,22.5-2.2c-11.5-3.3-18.2-3.7-18.2-3.7L1034.5,759.8z
		"/>
	<path class="st8" d="M1035.3,752.8c0,0,20-3.6,25.1-1.3c0.3,1.5-0.5,1.6-0.5,1.6l-24.6,1.6V752.8z"/>
	<path class="st8" d="M1107,348.4"/>
	<path class="st4" d="M1107,348.4c0,0,17.2,26,21.9,29.5c8.4,1.8,24,5.5,37.1,1.1c4.1-4,12-0.1,15.4,2.6c2.5,2.9,11.3,5.3,11.3,5.3
		l-0.5-22.8l-8.3-7.8l-1.3-0.1c0,0-14.6,14.4-15.4,14.8s-18.9,2.8-18.9,2.8l-17-1.8l-5.5-2.1l-9-9.3L1107,348.4"/>
	<path class="st5" d="M1157.3,375.5c0,0,8.8-3.8,14.8-1.5s13.8-4.8,13.8-4.8s12.8,0.3,15,3.3s4,9.8,4,9.8l3.5-7.8l-2.5-10.5l-7-4.8
		c0,0-4.3-3.2-7-1.7s-8.1-2.5-8.1-2.5l-7.1,7.7c0,0-14.5,11.8-17,10.5S1157.3,375.5,1157.3,375.5"/>
	<polygon class="st5" points="1206.9,365.4 1208.8,371 1208.4,376.8 1206.4,383.3 1205.5,383.6 1204.8,381.8 1205.4,369.8 
		1205.5,365.6 	"/>
	<path class="st10" d="M1132.4,337.1c0,0,8.2-4,11.6-3.8c1.2-0.2,4.3,0.6,5.7,1.2c0.7-0.2,6-1.1,6.4-0.9s7,2.6,7,2.6l5.7,2.2
		c0,0-5,4.7-6.7,5c-1.8,0.7-10.3,3.8-12.2,3.7s-11.3-2.9-14.8-4.9C1132.5,338.9,1132.9,338.3,1132.4,337.1z"/>
	<path class="st11" d="M1132.3,337.3c0,0,2.2,2.1,10.5,2.4c4.6,0.4,9.1,1.1,10.8,0.9s12-0.9,13.5-1.4c1-0.2,1.5-0.4,1.5-0.4
		s-11.3-5-12-5.2l-2.5-0.6l-0.5,0.5c0,0,7.8,2.4,6.1,4c-2.1,0.9-9.6,2.2-15.5,1.2C1137.8,338.7,1135.8,339.1,1132.3,337.3"/>
	<path class="st4" d="M998.8,547l17.8-5.2l-2.2,3.8l14.5,2.2l-2.3,3l33-1.2l1.5,12.8l2,11.7l3.3,48.3l-1.2,9l0.7,8.8l6.2,12.8
		l22,47.8l24.3,54.5c0,0,59-4.5,66.5-7.8s7.3-5,13.9-5.8c2.8-2.3,35.8-83.3,35.8-83.3l18.9-38.6c0,0-4.1-58.4,6.4-60.4
		s50.3-9.8,50.3-9.8l-5.5,35.1l-6.4,28.8l-4.3,16.8l-1.4,13.1l-17,36.4l-15.8,35.5l-24.3,38.9l-27.6,44.6l-11.5,24.9l-6.3,2.4
		l-2.3,3.5l1.3,4l-0.5,3l4.3,4l-0.1,2.9l-4.4,3.4l5,6.5l-0.8,3.3l-8.6,1.3l-17.1-2.8l-9.8,1.4l-13.3,2.3l-4.3-3.8l-0.3-1.1l-2-1.1
		c0,0,1.8-5.8,4.5-7.9l-13.5-6.4l-29-41.1l-12.2-11.2l-3.3-8.5l-42.3-63.7l-20.7-57.8l-14.7-58"/>
	<path class="st9" d="M1120.6,756l64.1-8.3l0.4,2.1l-27.9,41c0,0-17.1-20.9-21.9-20.5s-7.1,0.5-7.1,0.5l-9.5-13.4L1120.6,756"/>
	<path class="st12" d="M1157.3,790.9"/>
	<path class="st13" d="M1156.7,792.7c0,0-6.7,11.2-6.7,13.4s2.1,8.6,9.7,5.7c6.2-5.1,6.8-5.3,14-17.8c3.7-2.5,9.5-8.8,10.3-10.2
		c-1.9,3.2-3.9,5.8-3.9,5.8l-5.9,4.7l-1.3,2.2l2,1.8l0.4,3.3l-3,9.6l-0.6,0.8l-5-6l5.5,7c0,0,5.9,5.8,6.2,8.3s1.3,6.7-6.8,7.6
		c-2.7,0.2-6.3-2-9.1-4s-9.4-12.1-9.4-12.1l-12.8-14.7l12.3,14.3c0,0-1.3,2.7-0.8,3.8c0.4,1.1,2.6,3.8,2.6,3.8l1.2,1.9l3.1-0.8
		l-3.1,1.3l5.7,7.8l4.3-2.8l0.4,0.3l-4.5,2.9c0,0-3.3,1.8-3.7,3.3c0.1,0-11.8,6.4-12.9,9c-1.1,2.6-4.1,3.5,1.8,6.8
		c2.1-0.4,13.6-2.4,25.7-10.5c3.2-1.4,5.2-3.4,5.2-3.4l7.4-13.8l7.2-8.3"/>
	<polyline class="st13" points="1186.2,838 1179.4,844.6 1170.8,840.5 1183.9,847.4 	"/>
	<path class="st13" d="M1150.7,807.3c0,0,1.7,5.3,8.2,3.2c3.3-4.2,3.2-7.5,3.2-7.5s-3.8-4.3-5.8-3.5S1150.7,807.3,1150.7,807.3z"/>
	<path class="st13" d="M1168,827.3c0,0-5.8-8,1.7-11c4,0.5,7.2,1.8,7.8,5.3C1176.5,823,1168,827.3,1168,827.3z"/>
	<path class="st13" d="M1143.8,847c0,0,7.2-7.3,9.8,0.2c-1.2,0.8-7.3,2.6-7.3,2.6L1143.8,847z"/>
	<path class="st13" d="M1184.7,857c0,0,0.1-0.1,0.2-0.2c0.7-0.8,3.4-3.5,6.9-2.6c-1.6,2.5-0.6,3-0.6,3L1184.7,857z"/>
	<line class="st13" x1="1152.2" y1="849" x2="1166.2" y2="854.2"/>
	<path class="st14" d="M1179,762.7c0,0,9.7-12,22.3-4.7c9.3,10,13.3,12.7,13.3,12.7s-2.3,6.7,0,10.7c2.3,4,1,10.3,11.7,3
		c8.7-8,16.3-14.3,14.3-19.7c-2-5.3-3.3-10-6.3-8.7s-4.7,1.3-4.7,1.3s-24.3-13.7-32.7-13.7c-5.3,0.3-8.3,0.3-9.7,3
		c-1.3,2.7-10.3,15-10.3,15l-1.3,2.7L1179,762.7"/>
	<path class="st15" d="M1190.8,756l-0.2-1.7l8.3-11l-2,0.3l-7.2,9.8c0,0-6.8,1.7-9.5,4.5c-2.7,2.8-3.2,4.7-3.2,4.7
		S1187.5,754.8,1190.8,756z"/>
	<path class="st15" d="M1227.2,759.3c0,0-7.3,6.2-8.2,9.8c-2.2-1.5-2.2-1.5-2.2-1.5l-2.2,3l0.8,3c0,0-1.5,4.7-0.2,8
		c-1.2,1.8-1.7,2.7-1.7,2.7l3.7,2.3l2.2-0.2c0,0-5.5-13.8,11.3-26c3.7-1.3,4-2.7,7.3,0c0-1.2-0.5-5.3-6.5-2.8c-1.8-1.2-4.5-3-4.5-3
		l-2,1.5L1227.2,759.3z"/>
	<path class="st16" d="M1220.5,774.4c0,0,13.3-15.6,15.4-10c0.5,4,0.6,4.6,0.6,4.6s2.5-5.9,1.6-7.6c-0.3-1-0.9-3.4-4.1-2.5
		c-3.2,1.6-9.8,6.9-10.9,9.3c-1.5,2.4-3.4,6-3.4,6l-0.5,2L1220.5,774.4z"/>
	<path d="M1236.9,768.6c0,0,0-7.1-4.3-5c-4.3,2.7-12.8,9.5-13.3,12c-0.6,2.5-1.4,9.1,0.2,10.9c2.1,0.5,10.2-3.3,12.5-9.2
		C1235.8,772.3,1236.9,768.6,1236.9,768.6z"/>
	<ellipse class="st17" cx="1224.7" cy="771.6" rx="1.1" ry="1"/>
	<polygon class="st14" points="1190.8,756 1190.3,757 1179.7,761.7 1184.8,756.5 1190.7,754.3 	"/>
	<path class="st14" d="M1193.3,757.3c0,0,6.5-3,21.3,13.3c-0.7-2.7-21.7-24-24.3-13.7C1191.5,757.8,1193.3,757.3,1193.3,757.3"/>
	<path class="st3" d="M1059.5,549.7c2.8,3.7,6.4,80.7,6.8,88.8c0,0.5,0.1,0.9,0.3,1.3l19,43.9c1.8,4.3-4.2,7.4-6.6,3.4
		c-10.1-16.7-19.8-32-23.5-36.1c-9-10-8.5-14-6.5-27c4-19.5,0-72.5,0-72.5"/>
	<path class="st18" d="M1183.5,468.5"/>
	<path class="st19" d="M1201.9,313.4c0,0-1.3,2.2-2.1,4.2c-0.6,1.6,0.8,3.3,2.5,2.9c0.2-0.1,0.3-0.1,0.3-0.1l0.5,0.8
		c0,0,3.6-5.5,3.1-6.8s-0.3-3.5-0.9-4s1.3,0,1.4,0.9s0.6,4,0.1,5c-0.3,0.8-1.6,2.7-2.5,4c-0.4,0.6-1.1,0.9-1.8,0.9
		c-0.3,0-0.7,0-1.2,0.1c0,0,0,0-0.1,0c-1.5,0.4-2.8-0.9-2.6-2.4c0.1-0.9,0.3-1.8,0.4-2.3C1199.4,315.1,1201.9,313.4,1201.9,313.4z"
		/>
	<path class="st19" d="M1207,326.1c0,0-3.6-3.3,0.1-8.3c0-1.6-0.8-0.9-0.8-0.9s-2.3,3.8-1.6,5.1C1204.9,323.6,1207,326.1,1207,326.1
		"/>
	<polygon class="st19" points="1203.1,320.4 1203.5,320.1 1203.8,319.9 1203.5,320.8 1202.6,321.1 1202.6,320.4 	"/>
	<path class="st19" d="M1208.8,296.2c0,0,3,1.3,3.3,6.2c0.2,5,0.8,4.3-0.2,7.3c-0.9,2.7-3.7,8.4-4.8,11.5c-0.2,0.6-0.3,1.3-0.2,2
		c0.4,2.4,0.9,2,0.9,2s1-6.3,2.8-9.5c1.4-3.2,2.8-5.7,3.4-9.5c0.1-0.4,0.1-0.9,0-1.3c-0.5-3-1.1-5.4-2-7.3c-0.6-1.2-1.6-2.1-2.8-2.4
		c-0.7-0.1-1,0-1,0L1208.8,296.2z"/>
	<path class="st5" d="M1207.8,297.8c0,0,1.3-0.7,2.3,1.3s0.5,3-0.2,5s-3.8,3.3-4.2,5.5c-0.3,2.2,0.4,4.7,0.4,4.7s-1.3,6-3.6,6
		s-3.8-0.5-1.3-5.7c0.5-1.3,0.7-7.2,3-11.7c0.8-2.2,1.5-6.7,2.7-6.2s1.2,0.5,1.2,0.5"/>
	<path class="st5" d="M1088.8,290c0,0-4,0.3-4.5,7c-1,5,1.8,15.8,2.8,18.3c1.3,0-2.5-14.8-1.3-15.8S1088.8,290,1088.8,290z"/>
	<path class="st4" d="M1096.8,316.5c0,0-11.5-5.8-8.8-15.8c3-2.5,5.3-2.3,5.3-2.3l-3.5-2.5l2-3c0,0-2.5-3-3.8-1.5s2.3-1.5,2.3-1.5
		s2.8,0.5,3.3,3.3c-0.5,3-0.5,3-0.5,3l3.3,5.5l0.6,3.3l-1.3,3.2l2.1,5.1L1096.8,316.5z"/>
	<path class="st20" d="M1087,315.3c0,0-7.2-23.4-0.2-24.1C1085.7,293.3,1082.2,291.5,1087,315.3z"/>
	<path class="st21" d="M1095.5,318.5c0,0,1.8,1.2,0.8,3s-2.2,3-2.2,3s3.2-2,3.7-2.8C1098.3,320.8,1095.5,318.5,1095.5,318.5z"/>
	<path class="st21" d="M1157,246.8c0,0,2.3,1.5,2.8,4.5s-1.5,6-1.5,6s1.3-3.5,0-5.8S1157,246.8,1157,246.8z"/>
	<path class="st21" d="M1108.4,351l1.8,5c0,0-1,19,4.8,27.7c4.8,6,5.5,8,5.5,8s-13.6-13.9-12.8-22.3c0-6.9,0.8-17,0.8-17"/>
	<path class="st21" d="M1150.7,383.3c0,0,11.7-0.7,20.7,1.7c4.3,5.7,4.3,9.7,2.7,13.7c5.3-6.7,1.3-18.3-2.3-18.7
		C1168,379.7,1165.7,380,1150.7,383.3z"/>
	<path class="st22" d="M1043.3,717.3c0,0-12.5,15.3-11.5,33.3c7.8,1,33.8,0.5,33.8,0.5L1043.3,717.3"/>
	<path class="st22" d="M1277,679.8l-15.8,33.3c0,0,24.8-1.5,31,1.3c1.8-1.3-4-13.8-7.5-12.5c-0.5-4.5-2.5-13.5-6.3-16.5
		C1278.5,682.3,1277,679.8,1277,679.8z"/>
	<path class="st22" d="M1019.3,541.3c0,0-6.3-19.6-17.9-32.6c-5.3-15.3-6-21.7-4.7-31.3c1.7,11.3,8,36.3,32.3,57.7
		c4.3,8.7,9.7,10,9.7,10s2.7-3.7,0.3-8s-44.3-29-41.3-73c2.3-3.7,2.3-3.7,2.3-3.7s-11,23.3,42.3,72.7c4,0.3,4,0.3,4,0.3
		s-46-44.7-39.7-74.7c0,0,10.7,36,37,59c11,15.3,9.3,7.7,9.3,8.7s-1.3-5.3-1.3-5.3s-9.3-7.7-22.7-32c-12-24.3-13.7-38.7-13.7-38.7
		s20,37.3,20.3,38.7c0.3,1.3,17.7,29.7,17.7,29.7l8.3,7.3l-2.7-8c0,0,1.7,4.7-3.3-1c-5-5.7-13.7-25-20.7-33s-14.7-27.3-14.7-27.3
		s2.3,1.7,8.3,8.7c4.7,4.3,17.7,25.7,21.3,29.7s8,16,8,16s-18.3-59.7-22-62.3c-3.7-2.7-7.3-22.8-12.5-23.9
		c3.8,7.3,26.5,66.3,26.5,66.3l-28.3-37.3l-7.3-7c0,0-8.7,22.3,18.3,57c-22-36-25-51.7-25-51.7s-3,29.7-2,33.7s17.7,23.7,17.7,23.7
		s-27.3-38-23.7-50.3c3.7-12.3-6.7,19.7-5.7,24s6,32,10,41.7C1008,534.3,1019.3,541.3,1019.3,541.3z"/>
	<path class="st22" d="M1032.7,444.3l13.7,41.7l5.7,33.7l-8.7,16.7l-13.3,3l-6.3,3.7c0,0,12-1.7,7.7-0.7c-4.3,1-15.6,0.7-15.6,0.7
		l0.9,2.3l13.1,2.3l-1.8,2.6l33.3-0.9c0,0-0.4-15.9,1.3-18c1.7-2.1-30.3-101.5-35.1-102.7C1022.7,427.3,1032.7,444.3,1032.7,444.3z"
		/>
	<path class="st22" d="M1097,371c0,0-14,27.3,64,65.3c30.7,6,68-3.7,75.7,21c7,31,19.3,47.7,17.7,61.3c-1.7,13.7,0.3,35-6.3,45.3
		c-1.7,11.7,0.3,46.3-2.7,52.7c-1.3,6.3-5.3,22-9,28.3c-3.7,6.3-4,14-4,14l19.3-38.7c0,0-0.8-48.2,1-50c1.8-1.8,8.2-18.1,8.1-24.2
		s1.1-19.8,1.1-19.8l-1-14.4c0,0,5.3-34.4,2.4-47.4c-0.5-12.3-0.9-38.6-3-44.6s-3.5-12.4-3.5-12.4l9.5,15.3l9.3,7.9
		c0,0-14.8-20-7-15.8s32.5,18.1,31.5,23.6s1.6-2.9,1.6-2.9s-5.4-25.1-5.6-25.5s-25.3-20.1-25.3-20.1l-28.3-16.5l-26-10.8l-11.5-2.2
		c0,0,8.2,5.6,4,21.5c-5.9,9.3-23.8,27.6-31,29.1c-3.9,1.8-15.1,10.5-38.8,4.3c-8.1-2.4-24-9.3-28.3-14.9
		c-3.4-3.1-16.1-16.4-14.3-24.1c-0.3-2.9,1.5-8.4,1.5-8.4L1097,371L1097,371"/>
	<path class="st23" d="M1199,397.5c22.5,1,40.5,3,43,9.5s11.5,16,12.5,23.5s5.5,25.5,5.5,25.5s1.5-35.3-4-48.7
		c-5.5-13.3,25-8.8,19.5-11.8s-11.5-10-11.5-10l-19-10l-16.5-6.5l-23.5-8.3c0,0,5.5,9.1,5,13.8s-4,12.3-7,16.5
		S1199,397.5,1199,397.5z"/>
	<path class="st22" d="M1053,482l23,43.5l-3.5,22.5l3,39l2,48l42.5,117c0,0-51-107.5-52.3-113s-2.6-76.2-6.3-89.2
		c1-6.8,4.3-20.3,4.3-20.3l-15.5-47.5l-5-16.3L1053,482z"/>
	<path class="st22" d="M1285.5,424c2.5,8.5,11.5,42.5,11.5,46s-6.5,54-6.5,54l-6,28.5l-0.7,2.2l22.8-4.3l12.2-5.8l-3.8-34l-4.7-27.5
		v-16.2l-6.8-29.3l-0.7-5.5L1285.5,424z"/>
</g>
<g id="Layer_4">
	<path class="st17" d="M1164,292.8c0,0,6-3.1,10.8-1.8s9.9,5.4,9.9,5.4s-0.4,1.9-10.6,0.9c-7.1-1.8-11-3.8-11-3.8L1164,292.8"/>
	<path class="st17" d="M1119,292.3c0,0,5.4-5.4,18.6-1.8c2.2,0.9,1.6,1.3,1.6,1.3s-3,1.3-5.1,1.8
		C1132,293.8,1122.4,295.6,1119,292.3"/>
	<path class="st19" d="M1169.3,291c0,0,4.8-0.6,6.7,0.5c0.7,0.2,1.4,2.1,1.2,3c-0.2,0.5-1.4,2.7-3.3,2.7c-1.9-0.5-2.9-0.7-2.9-0.7
		S1166.9,292.1,1169.3,291z"/>
	<ellipse class="st24" cx="1173.3" cy="293.8" rx="3.3" ry="3.1"/>
	<linearGradient id="SVGID_1_" gradientUnits="userSpaceOnUse" x1="1173.2656" y1="296.4375" x2="1173.2656" y2="291.25">
		<stop  offset="0" style="stop-color:#AC8470"/>
		<stop  offset="4.926108e-003" style="stop-color:#B08874"/>
		<stop  offset="0.5025" style="stop-color:#5B3115"/>
	</linearGradient>
	<ellipse class="st25" cx="1173.3" cy="293.8" rx="2.7" ry="2.6"/>
	<ellipse class="st24" cx="1127.1" cy="291.6" rx="4.4" ry="3"/>
	<linearGradient id="SVGID_2_" gradientUnits="userSpaceOnUse" x1="1126.849" y1="294.1875" x2="1126.849" y2="289">
		<stop  offset="0" style="stop-color:#AC8470"/>
		<stop  offset="4.926108e-003" style="stop-color:#B08874"/>
		<stop  offset="0.5025" style="stop-color:#5B3115"/>
	</linearGradient>
	<ellipse class="st26" cx="1126.8" cy="291.6" rx="2.7" ry="2.6"/>
	<ellipse class="st24" cx="1173.3" cy="293.7" rx="1.9" ry="1.7"/>
	<ellipse class="st24" cx="1126.8" cy="291.6" rx="1.9" ry="1.7"/>
	<ellipse class="st17" cx="1128.5" cy="291.4" rx="0.5" ry="0.4"/>
	<ellipse class="st17" cx="1125.3" cy="291.8" rx="0.9" ry="0.8"/>
	<ellipse class="st17" cx="1171.8" cy="293.4" rx="0.5" ry="0.4"/>
	<ellipse class="st17" cx="1174.9" cy="294.1" rx="0.9" ry="0.8"/>
</g>
<g id="Layer_2">
	<g>
		<path class="st19" d="M1378.5,1081.5h-79.2l-0.1-1.4c-0.9-14.4-5.4-85.6-1-94.5c0.3-6.8,2.4-23,3.2-29.2c-0.2-0.5-0.4-1.1-0.6-1.7
			c-1.6-4.4-3.7-10.4-0.4-16.9c-4.2-1.4-6.4-4-7.9-5.7l-0.6-0.7v-0.6c0-1.2,1-2.6,3-5.3c0.3-0.4,0.6-0.8,0.9-1.3
			c-6.5-1.8-24.9-8.2-26.9-21.1c-8.3-6-59.1-58.5-65-73c-4.5-2-9.6-3.4-11.3-3.8c-0.9,0.6-2.9,2-3.8,4.1c0.9,0.9,1.5,2.1,1.7,3.6
			c0.1,1,0.1,1.9-0.2,2.7c1.8,1,4.7,3.1,4.5,5.9c-0.1,2.1-1.9,3.8-5.4,5.3c2.5,1.7,4.7,3.3,5.1,5.6c0.3,1.3-0.1,2.7-1,4
			c-2.4,3.9-17.5,1.2-26.6-0.8c-9.4,1.2-24.3,3.7-24.4,3.7l-0.4,0.1l-1.7-0.7c-4.4,7.3-29.2,48.8-33.7,60.4
			c-0.5,1.3-1.1,2.9-1.8,4.7c-7.9,21-17,43.5-26.2,47.1c0,0.2,0,0.3,0,0.5c-0.7,7.3-2.9,29.2-9.8,39.8c0.2,5,0.2,13.2-0.3,18.2
			c-0.3,2.9-2.4,16.7-4.4,28.9c-1.6,9.9-3,19.3-3.1,20.6l-0.1,1.4h-85.9l11.8-81.5c0.1-0.3,2.8-7.4,6.7-10.6
			c-0.8-4.5,1.3-9.9,3.5-12.4c-1.9-2.5-3.5-7.5-3.4-13.1c0-5.6,1.9-15.9,13.6-22.7c0.2-6.7,2.9-17.5,3-18l2.9-11.6
			c-1.1-3.9-8.1-33.2,4.4-86.2c-4.1-5.7-2.5-12.2,0.1-20.1c0.2-3.8,4.2-15.3,5-17.5V776l5.5-8l0-14.2c0.1-1.1,3-27.1,12.5-38
			c-4-6.3-11.3-28.4-18.5-50.7c-1.6-4.9-2.8-8.7-3.5-10.6c-2.1-5.1-23-88.9-21.9-108.1l-5.1,1.1l1-2.6c0-0.1,4.2-12.5-2.1-56.8
			l0-0.2c-0.5-25.9,6.7-60.5,21-73.6c6.5-6.5,51.5-38.5,92-51.5c-0.4-7.3,0-13.1,0-14.3l-4.3-20.5c-0.7,0.6-1.7,1.2-2.8,1.5
			c-2.7,0.6-5.7-0.8-8.9-4l-0.2-0.3c-2.9-4.6-11.7-26.3-6.3-35.3c1-1.7,3-3.7,6.7-4c-1.4-7.1-2.2-24.7-2.3-26.9l-0.3-7l2.7,5.4
			c-0.1-5.7,0.2-13.2,2.3-16.7l2.4-4.1l0.4,4.7c0,0.3,0,0.5,0.1,0.7c1.2-6.9,3.4-16.3,7.6-21.1l2.5-2.9l0.1,3.2c1-2,2.2-3.8,3.4-4.6
			l2.7-1.8l-0.3,3.2c-0.3,3.2,0.4,6.9,1.3,9.8c-0.6-3.1-0.7-7.1,1.1-11.4c3.9-9.3,14.9-16.1,32.8-20.3l3.5-0.8l-1.2,2
			c7.4-3.4,21.1-8.6,33.1-6.4l4.8,0.9l-4.5,2c-1.5,0.7-3.1,1.6-4.5,2.5c10.4-0.6,32.7-1.3,43.1,3.8l3.6,1.7l-3.8,1
			c-1.3,0.4-2.8,0.7-4.2,1c-2.9,0.6-6.2,1.4-8.1,2.4c5.6,2.2,14.2,9.5,16.2,11.2l8.2,7.1l-8.1-3.8c2.3,2.1,4,4.3,4,5.6v1.5h-1.5
			c-0.3,0-0.6-0.1-0.9-0.2c0.4,0.7,0.6,1.3,0.7,1.6l1.6,3.6l-2.3-1l5.8,7.6l-8.7-4.2l0.5,3.3l-2-1.1l0.3,2.8l-1.9-1.1
			c-0.1,0.6-0.5,1.1-1,1.4c-1.6,0.9-3.8-0.3-5.6-1.9l-1.4,1l5.2,5.6l-2.5-0.5l-1.7,1.4c1.5,2.2,4.7,7.2,5.9,10.8l1.4,4.1l-3.5-2.3
			c1.8,3.3,3.5,7.3,3.2,10.5l-0.3,3.6l-2.3-2.7c-0.1-0.1-0.2-0.2-0.3-0.3c0.5,4.4,1,10.3,0.3,12.3l-0.6,1.7l-1.6-0.9
			c-0.1,0-0.2-0.1-0.2-0.2c-0.3,2.8-0.9,6-1.8,8.3c1.7,0.9,4.3,2.7,5.7,6.3c2.6,6.5,0.5,15.8-6.1,27.6c-1.4,3.4-5.8,8.5-10.3,9
			c-1.1,0.1-2.6,0-4-1c-1.9,7.2-6.3,17.8-9.4,22.6c1.1,0.7,1.7,0.9,2,1c1.7-0.5,7.9-2,17.1,1.1c3.3,1.1,6.2,2,8.7,2.7
			c5.4,1.6,9.6,2.8,13,5.4c0.8,0.4,2.1,0.8,3.5,1.4c9.9,3.9,30.4,12,37.6,19.2c8.7,5.4,26.6,20.3,28.3,23.2
			c2,3.3,16.5,59.3,14.5,73.9c3.7,13,8.7,59,9,60.9l0.1,1l-9.5,4.6c-1.1,7.1-9.1,57-11.9,63.9c-0.7,7.1-3.5,15.4-4,16.7l-1.3,12.6
			l-0.1,0.2c-1.4,3-12.9,27.5-16.1,32.9c1.3,2.7,1.7,6.1,1.7,7.7c0.9,0.8,2.1,2.5,3.6,6c1.5,1.9,2.6,5.7,3.1,10.4
			c3.2,2,8.3,7.2,8.6,15.1c3.1,2.5,3.1,4.9,3,6.6c0,0.1,0,0.2,0,0.3c0.3,0.3,1.1,0.8,1.7,1.3c3.7,2.6,10.7,7.4,10.8,17.8
			c1.7,4.4,7.7,18.2,14.6,34.2c12.7,29.3,28.5,65.7,30.3,72.6c1.4,3.6,2.3,6.9,3.3,10.7c1.9,7.3,4.3,16.3,11.6,32.8
			c5.1,1.9,7.8,6.8,8,7l0.2,0.3l0,10.5c-0.1,0.3-1.5,6.2-4.6,9.9c1,5,2,16.4,0.2,25c2.2,7.1,4.8,21.6,1.5,33.5
			c0.5,8.8,1.5,59.6,1.2,65.7c1.2,5.5,1.7,34.9,1.7,36.1L1378.5,1081.5z M1302.2,1078.5h73.3c-0.2-9.6-0.7-30.6-1.7-34.1l-0.1-0.2
			l0-0.2c0.2-4.7-0.8-58.2-1.2-65.8l0-0.3l0.1-0.3c3.3-11.5,0.5-26.2-1.5-32.4l-0.1-0.4l0.1-0.4c1.9-8.5,0.8-20.6-0.2-24.8l-0.2-0.8
			l0.6-0.6c2.6-2.6,4.1-7.9,4.3-8.9v-9.2c-0.7-1-3-4.4-6.7-5.5l-0.7-0.2l-0.3-0.6c-7.6-17.1-10.1-26.4-12-33.8
			c-1-3.8-1.9-7-3.2-10.5l-0.1-0.2c-1.6-6.4-18.1-44.5-30.2-72.2c-7.1-16.3-13.2-30.5-14.8-34.6l-0.1-0.3V742c0-9-5.9-13.1-9.5-15.6
			c-1.8-1.3-3-2.1-3-3.4c0-0.2,0-0.5,0-0.7c0-1.6,0.1-2.8-2.4-4.6l-0.6-0.4v-0.8c0-7.5-5-12.2-7.7-13.7l-0.7-0.4l-0.1-0.8
			c-0.5-5.4-1.7-8.5-2.7-9.7l-0.1-0.2l-0.1-0.2c-1.6-3.9-2.7-5-3-5.2l-0.9-0.3l0-1.1c0,0,0-4.9-1.8-7.7l-0.6-0.9l0.7-0.8
			c1.4-1.7,10.6-21,16.2-33l1.3-12.6c0-0.1,3.2-9.2,3.9-16.4l0-0.2l0.1-0.2c2.2-4.8,9.3-47.9,11.9-64.1l0.1-0.8l9-4.4
			c-0.8-7.1-5.5-48.5-8.8-59.7l-0.1-0.3l0.1-0.3c2.2-13.6-12.9-70-14.1-72.3c-1.2-1.9-18.7-16.8-27.5-22.2l-0.3-0.2
			c-6.6-6.8-27.7-15.1-36.7-18.7c-1.6-0.6-2.9-1.1-3.8-1.5l-0.2-0.1l-0.2-0.1c-3-2.4-6.8-3.5-12.2-5c-2.6-0.8-5.5-1.6-8.9-2.7
			c-9.5-3.3-15.4-1-15.5-1l-0.3,0.1l-0.3,0c-0.5,0-2.1-0.2-5.2-2.5l-1.3-1l1.1-1.2c3-3.5,8.9-17.9,10.4-25.3l0.7-3.7l2,3.2
			c1.2,1.9,2.4,2,3.3,1.9c3.1-0.3,6.8-4.5,7.8-7.2l0.1-0.2c7.7-13.8,7.5-21.3,6-25.1c-1.5-3.7-4.5-4.9-5.4-5.2l-1.7-0.5l0.8-1.6
			c1.7-3.2,2.4-11.5,2.6-14.4l0.6-12.8l0.8,4c-0.1-0.8-0.2-1.6-0.3-2.4l-0.7-4.5l3.2,3.2c0,0,0,0,0.1,0.1c-1.4-3.9-4.2-8.1-5.6-9.9
			l-5.2-6.8l7.2,4.6c0,0,0.5,0.3,1.3,0.9c-1.9-3.3-4.1-6.4-4.1-6.5l-0.8-1.1l0.9-0.8l-10.5-6.1l9.4,1.8l-1.3-1.4l6.1-4.5l0.9,0.8
			c0.6,0.6,1.3,1.1,1.9,1.5c-0.1-0.2-0.2-0.3-0.4-0.5l-5.3-6.4l7.7,4.5l-0.2-2.7l1.5,0.9l-0.5-2.7l2.8,1.3l-5.2-6.9l5.3,2.3
			c-0.6-0.9-1.1-1.6-1.5-1.9l-0.3-0.2l-0.2-0.3c-0.7-1.3,0-2,0.2-2.2c0.2-0.2,0.4-0.3,0.7-0.4c-1.4-1.1-3-2.1-4.4-2.4l-2.9-0.7
			l2.2-1.9c0.5-0.4,1.2-0.7,1.8-0.8c-4.9-3.8-10.3-7.4-12.3-7.3l-2.3,0.1l0.8-2.1c1.2-3.3,6-4.5,10.9-5.6c-14.8-4-42-1.5-42.3-1.4
			l-5.1,0.5l4-3.1c0.1-0.1,2.3-1.8,5.1-3.5c-15-0.3-31.5,9.2-31.7,9.3l-9.9,5.7l8.1-8.1c0,0,0.1-0.1,0.2-0.2
			c-14.4,4-23.6,10-26.7,17.5c-3.3,7.8,0.8,14.7,0.9,14.7l0.9,1.6l-5.8,2.1l-0.6-1.2c-0.1-0.3-2.9-6.2-3.6-12.5
			c-1,2-2.1,4.5-2.9,6.7c-0.2,2.2-0.7,2.5-1.5,2.7c-0.8,0.2-1.5-0.2-1.8-1l-0.2-0.5l0.2-0.5c0.1-0.3,0.2-0.7,0.4-1.2
			c0-0.3,0-0.8,0.1-1.3c-4,8.7-5.3,23-5.3,23.2l-0.4,5l-2.4-4.4c0-0.1-0.5-0.9-0.9-2.5c-0.6,5.5-0.3,12.7,0,15.9l0.7,7.8l-3-6.1
			c0.5,7.9,1.3,18.2,2.3,20.9l0.8,2.2l-2.3-0.2c-2.8-0.2-4.8,0.6-5.9,2.5c-4.3,7.2,3.3,27.3,6.2,32c2.4,2.3,4.5,3.4,6.1,3
			c1.9-0.4,2.8-2.6,2.8-2.7l1.8-4.7l6.1,29.1l0,0.2c0,0.1-0.5,7,0,15.3l0.1,1.2l-1.1,0.3c-40.2,12.6-85.4,44.7-91.9,51.1
			c-13.1,12.1-20.5,45.8-20.1,71.3c5,34.8,3.5,50.2,2.5,55.6l4.6-1l-0.6,2.4c-3.3,12.4,19.4,104.1,21.4,108.5l0,0.1
			c0.7,1.9,1.9,5.8,3.5,10.7c4.9,15.2,15,46.7,18.7,50.8l1,1.1l-1,1c-9.3,9.3-12.4,35.4-12.6,37V769l-5.5,8v11.3l-0.1,0.2
			c-2,5.5-4.9,14.6-4.9,17v0.2l-0.1,0.2c-3,9-3.7,13.7-0.3,18.1l0.5,0.6l-0.2,0.7c-13.2,55.4-4.6,85.4-4.5,85.7l0.1,0.4l-3.1,12.4
			c0,0.1-3,11.9-3,18.1v0.9l-0.8,0.4c-10.5,5.8-12.8,14.3-12.8,20.5c-0.1,6.4,2.3,11.3,3.3,11.9l2.4,1.4l-2.5,1.3
			c-1.3,0.6-4.5,6.9-3.2,11.2l0.3,1.1l-1,0.6c-2.9,1.8-5.5,7.4-6.3,9.6l-11.2,77.6h79.7c0.4-3.2,1.6-10.8,3-19.4
			c1.9-12.1,4.1-25.9,4.3-28.7c0.5-5,0.5-13.4,0.2-18.3l0-0.5l0.3-0.4c4.4-6.5,7.7-19.6,9.6-38.8c0.1-0.6,0.1-1.1,0.2-1.5l0.1-1.1
			l1-0.2c8.9-2.1,19.9-31.5,25.2-45.6c0.7-1.8,1.3-3.4,1.8-4.7c5-13,33.4-60,34.6-62l0.7-1.1l3.3,1.3c2.5-0.4,15.8-2.6,24.4-3.7
			l0.3,0l0.3,0.1c13,2.9,22.4,3.4,23.6,2.2c0.7-1.1,0.6-1.7,0.6-1.8c-0.3-1.4-2.7-3-5-4.5c-0.5-0.3-0.9-0.6-1.4-0.9l-2.7-1.8
			l3.1-0.9c5.8-1.7,6.2-3.3,6.2-3.6c0.1-1.1-2.1-2.8-4.1-3.6l-2.1-0.9l1.6-1.6c0.1-0.2,0.4-1.1,0.2-2.3c-0.1-0.6-0.4-1.4-1.2-1.9
			l-1-0.6l0.3-1.1c1.1-4.6,5.8-7.1,6-7.2l0.5-0.3l0.5,0.1c0.3,0.1,7.2,1.6,13.1,4.4l0.6,0.3l0.2,0.6c4.8,14.2,61.3,70.8,64.5,72.4
			l0.7,0.4l0.1,0.8c1.2,12.1,22,18.8,26.4,19.7h1.4v1.5c0,0.9-0.7,1.8-2.3,4c-0.7,0.9-1.8,2.3-2.2,3.2c1.5,1.7,3.7,4.1,7.8,4.9
			l2.2,0.4l-1.2,1.9c-3.9,6.1-1.9,11.6-0.3,16.1c0.3,0.8,0.5,1.5,0.7,2.1l0.1,0.3l0,0.3c-0.8,6-3,23-3.2,29.6l0,0.5l-0.3,0.4
			C1297.8,991.1,1300,1044.7,1302.2,1078.5z"/>
	</g>
	<path class="st27" d="M1098.2,368.1c0,0-9.9,16.6,20.1,37.6c5.7,4.7,21.7,12.3,43.7,11.7c19-3.3,41.7-24.3,46.3-34.3
		c2.7-3.3,1.9-21-3.3-22.3c-6.2-1.5-6.2-1.5-6.2-1.5l5.9,4.2c0,0,5.7,5,3,13.3c0.7,6.3-14.7,26.7-45.3,38c-3.7,0.3-18.3,1.3-38-7.7
		c-5.7-4-33.4-20.4-24-39.7C1098.2,368.1,1098.2,368.1,1098.2,368.1z"/>
	<path class="st28" d="M1095.1,301.5c0,0,1.9,1.6,1.9,2.9s-0.9,3.1-0.9,3.1v1.8c0,0,2.4,2.8,2.2,6.1c-0.6,0.6-2.4-1.9-3.1-1.6
		c-0.7-0.3-3.6-2.2-5.3-3.5c0.8-1.1,1.8-3.6,1-4.4c-0.6,0.1-0.3,1.2-0.3,1.2l0.7,0.8l-0.3,2.3c0,0,0.9,0.9,1.9,1.6s2.1,1.5,2.1,1.5
		l2,1.2l0.8,0.5l-0.1-1.6c0,0-1.1-2.5-1.5-3.1c-0.4-0.6-0.6-2.1-0.6-2.1s1.4-2.8,0.8-3.9C1096.1,303.4,1095.1,301.5,1095.1,301.5z"
		/>
	<path class="st20" d="M1092.2,289.2c0,0,3.8-0.2,4.7,15.9c1.5,1.9,2.4,2.4,2.4,2.4s-1-31,4.8-36.5c0.8-3.1,3.3-7.5,3.3-7.5l0.8-5.1
		l-1.3,2.3l0.5-2.9l-2,2c0,0-2.1-1.9,1.4-5.6c-0.6-0.3-3,2-3,2s4.3-6,6.5-7.5c-0.4-0.3-3.4,1.4-3.4,1.4s5.8-8.1,9.1-8
		c-2.5-0.8-5.6,0-5.6,0s0.8-5.4,5.6-5.6c1.6-0.8,0.6-1.6,0.6-1.6s4.5-1.6,9.8,0.8c0-1.1-0.9-1.9-0.9-1.9s12.1,1.3,16.4,4.3
		c0.4-0.9-0.8-2-0.8-2s8.6,1.6,13.8,5.6c-1-1.8-1-1.8-1-1.8s4.8-2.6,11.5,0.6c0.9-0.5,4.4,0.6,4.4,0.6s4.3,1.8,6.4,3.1
		c2,2.8,4,2.6,6.6,10.8c-0.4,1.8-0.8,5.1-0.8,5.1l2.4-7.4c0,0,1.5,2.6,1,5.6s-1.6,6-1.9,6.6s3.3-6.1,3.8-8.8s1-4.5,1-4.5
		s1.6,1,1,3.8c0.8-0.5,1.6-4.3,2-7c0.5,0.5,1.3-2,1.3-2s2.4-1.4,3.6,1.8c-0.1,1.8-1,4.5-1.8,6.1c-0.4,1.3,1.8-1,1.8-1l-2.4,4.8
		c0,0,3.3-3.3,4-4.9s2-6.1,2-6.1s1.5,6.1,0,10.1c1.4-0.4,2.5,4.6,1.5,7.8c0.1,1.9,0,5.9-0.8,8.8c1,1.5,1.1,10,1.1,10l0.9-4.5
		c0,0,0.3,9.8-1,12.9c1,0.1,2.4-4.5,2.4-4.5s-2,10.5-2.9,13.3c1.8-0.9,2.3-3.5,2.3-3.5s-1.3,10.1-2.4,13.5c0,1.5,0,2.4,0,2.4
		l-0.3,1.4c0,0,4.8-19.8,8.8-20.8c-2-0.7-2-0.7-2-0.7l2.4-10.6l0.5-5.5l0.3-6.9l0.2-3.9v-3.8l2.2,1.3l0.8,0.8l-4-7.6l-2.1-2.9
		l-3-3.9l-1-1.4l4.4,2.4l3.5,2.3l-4.9-7.6l0.9-0.8l-10.5-6.1l9.4,1.8l-1.3-1.4l6.1-4.5l2.5,1.9l-5.3-6.4l7.7,4.5l-0.2-2.7l1.5,0.9
		l-0.5-2.7l2.8,1.3l-5.2-6.9l5.3,2.3c0,0-4.7-5.5-1.1-5c-2.6-1.7-7.3-3.1-7.3-3.1l4.1-2.7c0,0-10.2-8.8-14.5-7.2
		c0.5-1.5,0.1-5.4,11.6-7.7c-1.2-0.3-21.8-4.2-47.4-1c2-1.6,9.1-6.7,9.1-6.7s-14.1-2.6-41.6,15c1.2-1.2,8.3-8.3,8.3-8.3
		s-35.9,7.9-26.7,31.2c0.4,1.1-4,4.7-4,4.7s-3.5-13.9-4.2-13.7s-3.8,8.2-5.8,4.8c-0.6,3.1-1.2,0.7-2.3,6.6
		c-1.1,5.8-2.6,13.8-2.6,13.8l-0.7,7.8l-3.3-6.9c0,0-0.8,19.9,0.7,23.7c-1.6-3.3-3-6.1-3-6.1S1090.5,287.7,1092.2,289.2z"/>
	<path class="st19" d="M1109.3,282.2l1.9-2.5l2.6-1.4h-1.9l4.9-1.3c0,0-2.6,0.1-2.8-0.3c0.8-0.3,0.9,0.4,5.8-0.6
		c-2.6-1.1-1.9-1.1-1.9-1.1s2.6-0.8,4.8-0.6c-1.3-0.2-1.1-0.6-1.1-0.6s3.1-1.1,9.1,0c-0.5-0.4-0.9-0.9-0.9-0.9l7.7,1.5l-1.1-1.1
		c0,0,6.2,2.2,7.1,9.8c-1.9-1.3-2-2.1-4.4-3.1c0.8,0.8,0.9,1.8,0.9,1.8s-3.6-2.1-6.1-2.3c0.2,0.4,0.1,1.1,0.1,1.1s-4.8-1.6-7.6-0.9
		c0.9,0.4,0.5,0.7,0.5,0.7s-4.1-1.5-5.9-0.8c1.1,0.3,0.6,0.6,0.6,0.6s-5.4-0.8-6.9,0.2c0.6,0.3,0.6,0.3,0.6,0.3
		S1110.9,280.9,1109.3,282.2z"/>
	<path class="st19" d="M1114.6,290.5c0,0,6.3-8.3,15.6-6.4c1.1,0.4,7,2.9,8.9,4.3c-0.1,0.3-5.2-2.7-9.3-3.6
		c-0.9,0.3-2.5-1.2-6.9,0.4C1121.4,286.3,1117.8,287.3,1114.6,290.5z"/>
	<path class="st19" d="M1116.8,293.4c0,0,4.8-4.8,11.1-4.6c2.5,0.1,7.4,1.1,9.7,1.8c-0.6,0.3-7.4-1.4-9-1.1c-0.9,0-5.3-0.1-8.8,2.4
		c-1.1,1.5-1.8,1.6-1.8,1.6H1116.8z"/>
	<path class="st19" d="M1136.3,292.9c0,0-5.1,0.9-7.1,1.1c-1.3,0-7.1,0.9-9.4-1.5c-0.4-0.2-0.4-0.2-0.4-0.2l-0.5,0.5
		c0,0,2,1.1,3.5,1.4c1.4,0.5,5.4,0.4,6.5,0.3C1129.6,294.4,1136.3,292.9,1136.3,292.9z"/>
	<path class="st19" d="M1131.1,289.5c0,0,1.9,2-0.3,4.3c-0.9,0.1-2.4,0.2-2.4,0.2s1.8-0.2,2.1-0.7c0.3-0.4,1.3-1.3,0.3-3.4
		c-0.4-0.1-1.3-0.5-1.3-0.5H1131.1z"/>
	<path class="st19" d="M1123.4,290.1c0,0-0.7,2.1,1.2,4c-0.9,0-1.9-2.4-1.9-3.7C1123.4,290.1,1123.4,290.1,1123.4,290.1z"/>
	<path class="st19" d="M1167.9,286.6c0,0,9.3-2.3,15.1,3c1.3,1.5,3.5,3.8,3.5,3.8s-2.3-5.6-9.3-7.3
		C1175,285.7,1169.8,284.8,1167.9,286.6z"/>
	<path class="st19" d="M1163,293.4c0,0,9.9-6.8,20.9,2.7c-0.2,0.8,0.6,1.3,0.6,1.3l1.3-0.5c0,0-6.2-5.3-11.1-6.4
		C1173.3,290.6,1170.5,289,1163,293.4z"/>
	<path class="st19" d="M1164.1,294.5c0,0,6.4,1.8,10.3,2.1c1.5,0.1,7.6,1.2,9.6,0.2c-0.6,0.8-7,0.6-11,0.4
		C1170.1,296.5,1166.8,295.8,1164.1,294.5z"/>
	<path class="st19" d="M1177.2,292.3c0,0,1.3,2.1-0.9,4.5c-0.7-0.1-1.1-0.1-1.1-0.1s1.6-0.8,1.7-2.2c0.2-0.4-0.5-2.7-0.5-2.7
		L1177.2,292.3z"/>
	<path class="st19" d="M1193.3,287.9c0,0,0.2-4.5-2-6.3c1.5,0.1,1.5,0.1,1.5,0.1s-2.8-2.5-5.4-3c1.1-0.1,0.8-0.6,0.8-0.6
		s-3-1.7-4.9-1.5c1.3-0.2,1.3-0.2,1.3-0.2s-5.4-2.7-7.5-1.9c1-0.3,1.4-0.6,1.4-0.6s-4.3-0.6-7.5,1.3c1.4-0.7,1.5-1.3,1.5-1.3
		s-2.3,0.6-4.6,2.5c-0.1,0.1,0.8-1.3,0.8-1.3s-3.6,1-4.7,3c0.6-0.8,0.6-0.8,0.6-0.8s-1.9,0.2-3.4,0.8c0.7-0.2,1.1-1.2,1.1-1.2
		s-2.5,1.1-2.7,4.9c0.1,1.1,0,1.8,0,1.8s2.3-1.7,4-1.3c-1,0.5-1,0.5-1,0.5s3.9-2.8,6.5-2.2c-1.3,0.8-1.2,1.3-1.2,1.3
		s4.7-1.4,6.5-0.9c-1.3,0.5-1.3,0.5-1.3,0.5s5.3-0.7,7.3,0.4c-1.3,0.4-1.3,0.4-1.3,0.4s4-1.1,6.1,0c-1.4,0.6-1.4,0.6-1.4,0.6
		s5.3,0.4,6,1c-1.8,0.3-1.8,0.3-1.8,0.3S1192.2,285.9,1193.3,287.9z"/>
	<path class="st19" d="M1146.5,297.4c0,0,0.1,9.1-2.5,11.8c-2.4,3.4-6.3,4.4-7.1,7.1c-0.9,2.5,0.9,4.9,2.3,4.8s3.8-2.8,4.9-2
		c1.1,0.1,2.5,1.5,2.5,2.6c0.6,0.9,0.6,0.9,0.6,0.9s-1.3-2.3-2.6-2.1c-0.8,0.3-0.4-1.3-3.9,0.9c-1.1,0.5-2.7,0.9-4-1.8
		c-0.5-1.3-2.3-3,3.1-7.6c2.1-1.6,2.5-1.1,3.6-3C1144.1,307.8,1144.8,308.1,1146.5,297.4z"/>
	<path class="st19" d="M1152,321.6c0,0,1.1-3.1,6.5,0c1.6,0.4,5.4,1.3,4.5-3.5c-1.9-2.4-3.3-3.6-3.3-3.6s4.3,2.8,4.4,3.7
		c0.4,1.4,0.2,3-1.1,3.7c-0.8,0.4-1.9,0.9-4.9,0.7C1156.5,321.8,1154.4,321,1152,321.6z"/>
	<path class="st19" d="M1174.1,327.9"/>
	<path class="st19" d="M1180.4,324.5"/>
	<path class="st19" d="M1131.5,335.7c0,0,1.2,2.9,5.4,3.3c3.8,0,13.1,2.1,18.6,1.2c3.4-0.4,10.8-0.5,14.2-2.5c-1.6,1.1-4,1.9-4,1.9
		s-8.8,0.8-10.1,1.4c-2.2,0.1-15.6-1.2-18-1.2C1134.6,339.1,1131.5,337.4,1131.5,335.7z"/>
	<path class="st19" d="M1135.6,335.8c0,0,6.5-3.4,8.8-2.8c2.6,0.3,3.1,1.5,5.2,1.3c2.2-0.5,4.6-1.5,6-1.4c1.2,0.8,5.6,2.7,6.9,3.5
		s-6.3-2.4-6.9-2.4c-0.9-0.3-5.1,0.5-6.5,0.7c-1.5-0.7-4.4-1.3-5.4-1.1S1136.3,334.9,1135.6,335.8z"/>
	<path class="st19" d="M1134.3,342.7c0,0,7.4,3.7,15.5,4.5c6.4-1.3,8.1-1.7,12.7-3.3c4.6-1.6-9.2,3.9-11.5,4
		S1143,347.3,1134.3,342.7z"/>
	<path class="st19" d="M1107,348.4c0,0,12.6,18.8,19.3,21.9c2.4,1,3.2,2.8,7.6,3.7c3,0.7,8.2,2.2,12.2,1.5c3.2,0.3,3.6,1.7,16.4-1.7
		c3.6-1.5,6.8-3.5,12.8-9.5c3.3-1.7,5.2-5.5,7.4-8.1c-3.1,2.4-9.6,9.6-12.9,11.4c-1.5,0.7-6.1-0.5-8.1-1.8c-0.2,1.7,0,2.5,0,2.5
		s-2.5-4.7-1-7.3c-2.2,2.5-2.4,4.5-2.4,4.5s-1.9-6,0-7.2c-2.5,3.2-2.6,4.8-2.6,4.8s-2-2.7-1-4c-2.3,2.5-2.5,3.7-2.5,3.7
		s-2.3-1.8-0.8-3c-1.5-0.2-1.2,2.4-1.2,2.4s-1.2-2.9,0.8-4.7c-2.3,2.3-2.3,3.2-2.3,3.2s-2.6-1-1.4-2.2c-1.5,0.7-2.3,1.7-2.3,1.7
		s-2-1.5-0.8-2c-1.3,1.5-0.7,2.2-0.7,2.2s-2.5,0.6-3.1,1.9c-0.5-1.1-1,1.6-1,1.6l-1.6-2.5c0,0-1.4,2.3-1.3,3.3
		c-0.3-0.5-3.3,1.8-3.3,1.8l0.3-2.5l-1.4,4.5v-2.8l-1.7,4.5v-3.7c0,0-1,0.8-1.1,3.2c-1.1-0.8,0.7,0.5-2.8-0.7
		c-1.9,0.2-4.8-3.8-4.8-3.8L1107,348.4z"/>
	<path class="st29" d="M1115.8,225.3c0,0,5.2-9.2,10.4-11.2c4.1-1.8,8.4-4.5,14.4-5.7c4.2-0.5,7.5-0.5,11.3-0.8
		c-3,1-11.5,1.3-14.4,3.7c-1.6,1-3.5,0.2-9.9,5.2c-2.1,2.5-6.9,4.8-8.7,8.8C1118.5,226.3,1115.8,225.3,1115.8,225.3z"/>
	<path class="st30" d="M1141.5,218.3c0,0,9.5-1.2,11.7-0.8s8.1,0.2,11.9,3c2.3,2.2,6.5,4.8,8.2,7c1.7,2.2,7.5,5.7,9.2,8.3
		c1.8,2.7,4.1,3.7,5.1,6.8c-1.8-1.2-5.7-8-14.5-11c-2.2-1.3-6-7.7-11.7-7.3c-2.3,0.5-5.3-0.8-9.5,4c-2.5,5-3.6,5.2-4,7.3
		c-0.4,2.1-0.4,2.1-0.4,2.1l-6.6-1.9l0.8,2l-14.9-4.1l-12.4-2.3l-0.5-1.4h2.8l-2.8-0.7l0.7-1.3l2.1-0.2l2.9,0.7l4.9,1.6
		C1124.6,230.1,1131.1,220.8,1141.5,218.3z"/>
	<path class="st31" d="M1127.6,230.1c0,0,9.4-10.8,17.2-9.3c6,1,3.9,1.5,3.9,1.5s-11.3,5.6-12.4,7.8
		C1132.3,230.5,1127.6,230.1,1127.6,230.1z"/>
	<path class="st31" d="M1158.1,207.7c0,0,13.2-0.7,17,1.3c-2.2,0.8-5.5,1-5.5,1s13.4,0.7,18,6.7c1.3,4.3,2.1,10.8,2.1,10.8
		s-2.3-6-10.5-6.9c4,2.1,8.1,5.7,8.4,9.4c3.3,9.2,2.1,14.4,2.1,14.4s-7.9-11.5-12.1-14.2c-1.6-1.3-0.7-6.8-6.6-8.3
		c6,2,7.2,2.8,9.4,6.8c-1.1-4.3-2.8-7.5-6.3-9.8c-0.3-1.8-0.3-1.8-0.3-1.8s4.3,0.3,6.6,1.5c-4.9-2.3-4.6-3.5-14.9-5
		c-7.5-1.8-7.2-3-11-2C1155,211,1154.8,210.1,1158.1,207.7z"/>
	<path class="st30" d="M1098.4,296.7c0,0-0.7-5.4,2-16.6c-3-13.6,3.6-24.6,5.4-26.7c-1.2,0.5-2.8,1.7-3,2s5.5-7.4,6.5-7.5
		s-2,0.1-3.4,1.4s1.6-7.1,10.8-7.8c-3.5-2-7.3-0.2-7.3-0.2s0.2-4,3.7-5.2c1.2-0.3,3.7-0.9,2.5-2c-0.8-0.4-2.9-1.6-2.9-1.6l-3.1,2.9
		L1108,225l-0.4-5.2l0.5-3.9c0,0-3.1,1.2-4.9,5.4c-0.2-0.4-0.6-2.9-0.6-2.9s-8.6,8-9.1,21.7c-0.9,1.5-1.4,2.3-1.4,2.3v-4.6
		c0,0-4,1.9-3.8,17.3c-0.2,2.7,4.9,33.1,4.9,33.1s2.8,6.2,3.4,10.5c0,2.8,0,4.2,0,4.2l1.8,2.1L1098.4,296.7z"/>
	<path class="st30" d="M1202.7,254.9c0.9-2.6,0.5-7-1.8-11.2c2.9,1.3,3.9,6.3,4.3,9.4c0.7-3.7-0.1-8.8-1.9-11.4
		c1.8,0.8,3.4,4,4.3,5.9c0.2-2-0.9-5-3.2-6.4c4.1,0.5,3.4,2.5,3.9,2.8c0.3-0.8,0.1-2.3-1.2-3.8c2.6,1.4,2.3,2.6,2.8,3.1
		c-0.4-3.3-1.6-3.1-1.6-3.1l4.1,3.8h-1.2c0,0-2.2,2-1.6,2.1c2.8,1.5,5.7,10.8,6.3,12.4c-0.8-0.6-2.2-0.7-4.1-1.2
		c4.3,5.1,3.7,9.8,5.2,14.3c-2.8-3.2-2.7-2.1-3.6-1.8c3.2,17.3-1.9,10-1.4,12.6c-0.8,5.9-2.2,9.5-2.8,11.3
		c-2.9-1.3-8.4,16.3-8.4,16.3l2.2-12.8l-2.3,3.5l2.9-13.3c0,0-2.4,4.5-1.9,2.6c0.5-1.9,2.5-14.1,1.6-14.1c-0.2-0.2-1.4,4.7-3.1,7.1
		c0.5-1.9,0.3-8.7,0-9.5s0.7-4.3,0.8-8.8s-0.4-6.8-1.5-7.8c1-1.9,0.2-9.4,0.2-9.4L1202.7,254.9z"/>
	<path class="st31" d="M1146,233.3c0,0,1.7-7,6-8.8c-0.5,2.3-1.2,4.4-1.2,4.4s3.6-5.6,9.5-4.5c-1.4,1.5-4.4,2.3-4.4,5.6
		c1.3-1.4,4.2-5.1,8.3-4c-4.4,4-6.3,7-5.3,9.5c-3-0.3-4.4-0.6-3.9,1.5c-1.8-0.7-4.8-3.7-6.1-1.8c-0.9-0.2-6.2-1.7-4.2,0.3
		c-1.3,0.2-3.2-1-3.2-1L1146,233.3z"/>
	<path class="st31" d="M1168.8,227.5l4.4,4.2c0,0,7.8,2.3,9.4,5.7c1.3,2.8,2.3,13.2,1.7,15.2s-2.4,7.4-2.4,7.4s2.3-11.6-5-14.8
		c-2.7-2.1-8.2-4.9-11.6-4.8c-2.8-1.1-7.1-1.6-7.1-1.6l6.1-0.9c0,0-1.4-2.6-5.3-2.3c1.3-1.8,2-3.5,5.3-4.8
		C1165.5,229,1168.8,227.5,1168.8,227.5z"/>
	<path class="st31" d="M1118.9,225.3c0,0,7.9-13.9,31.9-17.4c-9.6,4.8-14.1,5.8-16.3,6.8c5-0.5,9.6-4.8,18.4-2.5
		c-5.2,0.5-9.6,2.5-9.6,2.5s7-1.5,11.2-0.5c-5,2-21.8,11.1-21.8,11.1H1118.9z"/>
	<path class="st30" d="M1199.6,211.3c0,0,8.1-1.5,13.9,4c-2.8,0.3-5.1,0-5.1,0s4.6,1.5,8.6,5.4c-2.6-1.1-5.5-1.8-5.5-1.8
		s6,3.9,8.4,6.5c-5.7-2.6-5.7-2.6-5.7-2.6s3.5,4.4,4.5,7.3c-1.7,0.1-3.2-2.5-3.2-2.5s2.3,2.5,2,5.4c-1.5-0.9-5.5-2.2-5.5-2.2
		s0.8,2.1,2.5,3.1c-2.3,1.9-4.8,0-4.8,0s-0.7,0.2-1.4,3.3c-1.6-6.5,0.6-10,0-14c-1.4-0.3-3.6-4.1-10.1-6.3c-4.3-3.2-4.5-6.7-9.5-7.2
		C1191.3,208,1199.6,211.3,1199.6,211.3z"/>
	<path class="st30" d="M1197.3,223.1c0,0,4.9,2.5,7.1,7.6c1.9,4.6,0,6.3,0,6.3s0.2-5.7-4.7-7c2.1,3,2.9,5.5,1.6,8
		c-2-3.8-2.7-5.8-5.5-6c2,3.3,1.5,4.2,1.4,6.9c-1.6-2.4-1.2-6.7-5.6-8.8C1193,226.3,1197.3,223.1,1197.3,223.1z"/>
	<path class="st30" d="M1149,202c0,0,5-5,12.5-6.7c-1.8,2.2,4.3-2,9.8-1.8c-4.8,2-4.4,3-4.4,3s6.8,0,8.7-0.2
		c-3.6,1.4-5.2,3.4-5.2,3.4s4.6-1.7,10-2c-6.4,3.7-10.7,6.5-10.7,6.5s-9.6-1-15.1,1.3c-5.5,0.5-7.5-0.9-11.2-1
		C1144.8,202.5,1149,202,1149,202z"/>
	<path class="st30" d="M1177.6,203.3c0,0,6.4-6.1,20.7-4.1c-3.6,1.8-5,1.8-5,1.8s8.4-2.6,15-1.5c-3.1,2.2-4,3.7-4,3.7l5.5-1.4
		c0,0-12.6,1.9-14.1,3.7s-5-0.6-9.3,0S1177.6,203.3,1177.6,203.3z"/>
	<path class="st30" d="M1113.3,222c0,0-0.3-8.8,9.8-14c4.4-2.6,6-3.5,8.9-4.6c-0.4,2.2-3.6,2.6-4.3,4.6c2.6-1.5,7.3-5.7,11.2-5.4
		c-1.8,2.2-5.9,5.9-5.9,5.9s-5.8,0.3-9.3,5.5c-1.4,3-5.9,1.9-6.9,6.6"/>
	<path class="st12" d="M1058.7,551c0,0,7.7,60.7,5.3,78c-0.3,5.7,1,11.7,1,11.7s47.3,102.7,54.3,120c3.7,8.3,8.3,12,8.3,12
		s7.7-2,13.3,2.7c5.7,6,14.3,13.7,15.7,17.3c3.7-5.3,16.7-27,21.3-28.3c3-4,14.7-3.3,15.3-7c-2.7-1-5-0.3-5-0.3l-12.7,7.3
		c0,0,13.7-24.7,23.3-21c4-5,24.3-60,35-79.3c5-16.3,19-38.3,20.3-44.3c-1.3-7-3.3-47.7,3.7-61.7c0.7-7.7,5-26,2.7-32.7
		c0.7-9.7-3-11.3-0.3-15.7c3.7-17,4-33,2-41.3c-1.3-7.3-0.3-40.7-3.7-50.3c-2-5.7-2.7-10.7-2.7-10.7s2.3-10,6.7,25.3
		c0,14.3,0,23.3,0.7,26c0.7,2.7,1.3,12.7,1.3,12.7s0.3,34.7-1.7,40.3s2.7,39.7-2.3,47.3c8.3-1.7,47.9-10,47.9-10l0.1,2.7l-47.7,9
		l-3,2.7l-5.3,7c0,0-1.7,33-1.7,34.3c0,1.3,0.7,15.7,0.7,15.7S1231.3,661,1229,667c-3.7,10.3-26.3,63.7-26.3,63.7l-4,11.3
		c0,0-6.3-8.3-25.3,23.3c-3.3,2.3-16.7,24.3-16.7,24.3s-13.7-21-21.7-21c-5.3,1-5.3,1-5.3,1l-7.3-9c0,0-45-104-55.3-120.7
		c-0.3-8.7,1.7-33-5.7-90.7C1057.7,549.7,1058.7,551,1058.7,551z"/>
	<path class="st12" d="M1043.3,718.5l19.5,31.3c0,0-22.5-1.5-31,0.8c-0.3,3.6-0.3,3.6-0.3,3.6s16-4.8,37.5-0.6
		c-1.8-3-23.9-37.5-23.9-37.5L1043.3,718.5z"/>
	<path class="st12" d="M1067.8,754.5l16,25.3c0,0-1.3,4.3,14.8,19c5.3,5.8,29.3,40.3,29.3,40.3l13,6c0,0-6.5,8-2.5,9
		c1.1,2.1,1.8,3,1.8,3l2.7,0.5c0,0-3.7-2.2-0.9-4.2c-1.8-0.3-6.5,0,1-7.8c-0.3-1.5-0.3-1.5-0.3-1.5l-8.5-4.3l-5.5-3.3L1101,796
		l-8.3-5.8c0,0-2.8-2.5-5.8-9c-1.3-2.3-18-27.8-18-27.8L1067.8,754.5z"/>
	<path class="st12" d="M1121.3,754.3c0,0,34.7-1.3,63.7-8c2-1,2-1,2-1l-1.7,3c0,0-44.7,9.7-63.7,8.3c-2-0.7-2-2-2-2"/>
	<path class="st12" d="M1292,715.3c0,0-18.7-5.3-34.3,2.7c1.3-6.7,17.3-40.7,17.3-40.7l2,4l-14.7,31.7c0,0,24.7-2.7,27.7-1
		S1292,715.3,1292,715.3z"/>
	<path class="st12" d="M1192.8,823.3c0,0,4.5-0.6,4.5-5.6c3.3-7,14.7-31,16.3-33.3c3,2.7,5,3.3,5,3.3s7.7-2.7,10-5.3
		c2.3-2.7,8.7-12,9.7-17.7c1-5.7,0.3-8.7-4-8.7c-2,0.3-2,0.3-2,0.3l25.3-38.3l3-0.3l-24.7,37c0,0,16.3,2-3.7,28.7
		c-2.7,5.3-14.7,10-18,7.3c-3.7,6.7-14.3,28-14.3,28l-3.7,6L1192.8,823.3z"/>
	<path class="st3" d="M1268.8,559.8l-6.2,0.7c-1,0.1-1.9,0.6-2.5,1.4l-3.5,4.3c-0.5,0.6-0.8,1.2-0.9,2c-0.8,6.2-4.2,36.6-0.7,50.1
		c0.2,0.9,0.1,1.8-0.3,2.6c-2.8,5.9-12.3,26.5-20.5,44.5c-1.8,4,3.5,7.4,6.4,4.1c2.2-2.6,4-4.5,5.1-5.2c0.1-0.1,0.3-0.2,0.4-0.2
		c3.9-1.9,6.5-7.2,9.5-9.8c0.6-0.5,1-1.2,1.2-2c1.3-5.4,9.8-25.9,14.1-31.8c4.8-6.5,6-45,4-51.8c-0.8-2.7-1.5-4.7-1.9-6.1
		C1272.2,560.7,1270.6,559.6,1268.8,559.8z"/>
	<path class="st32" d="M1043,490"/>
	<path class="st19" d="M1000.4,544.9c0,0,14.8-4.4,18.8-3.6c-3,2.3-4,3.8-4,3.8s6.5-0.8,16.5,2.5c-2.3,2-3.8,2.8-3.8,2.8l33-2
		c0,0-1.5-6.5,1.5-13.5s-18.8-71.8-25-83.3c-5-4.3-9.8-24.8-18-28.3c9.3-1,20.8,27,20.8,27s25,73.8,25.5,79.3
		c-2,7.3-1.3,15.5-3,19.5c-3.3,4-35,3.8-39,3c3.8-3.5,3.8-3.5,3.8-3.5s-11.5-2-14.8-2c1.8-3.3,3-3.5,3-3.5l-17,4L1000.4,544.9"/>
</g>
</svg>
